<?xml version="1.0" encoding="iso-8859-1"?>
<!-- Generator: Adobe Illustrator 19.0.0, SVG Export Plug-In . SVG Version: 6.00 Build 0)  -->
<svg version="1.1" id="Layer_1" xmlns="http://www.w3.org/2000/svg" xmlns:xlink="http://www.w3.org/1999/xlink" x="0px" y="0px"
	 viewBox="0 0 511.999 511.999" style="enable-background:new 0 0 511.999 511.999;" xml:space="preserve">
<polygon style="fill:#FFFFFF;" points="183.525,37.755 149.296,7.159 112.215,24.206 136.46,44.172 124.338,53.443 125.05,78.402 
	152.861,90.524 97.952,164.687 72.994,162.548 57.305,178.237 85.116,221.737 33.772,224.589 53.026,245.269 73.706,245.269 
	53.026,266.663 70.855,284.49 92.247,274.506 99.378,256.679 109.362,285.203 96.525,307.309 110.075,370.776 137.173,433.53 
	155,482.021 172.829,504.84 212.763,460.627 219.893,371.49 274.803,332.268 324.72,294.474 324.72,279.498 361.803,259.531 
	343.262,216.031 346.827,179.663 362.515,179.663 369.646,207.474 411.006,208.9 390.326,232.433 407.441,233.146 422.417,261.671 
	448.801,178.95 478.232,153.278 455.932,128.319 395.318,166.114 399.597,179.663 346.827,179.663 338.27,191.073 338.27,191.073 
	281.221,180.376 219.181,152.565 234.155,127.606 199.213,104.787 197.074,86.959 214.189,85.532 203.493,63.427 221.32,52.017 
	223.459,37.041 208.483,30.623 "/>
<polygon style="fill:#87E87C;" points="257.373,344.712 219.89,371.489 212.764,460.631 172.824,504.844 154.991,482.021 
	137.17,433.534 110.074,370.773 104.511,344.712 "/>
<g>
	<polygon style="fill:#F4C653;" points="346.823,179.667 343.738,211.114 78.328,211.114 57.301,178.236 72.986,162.551 
		97.945,164.687 152.854,90.525 125.041,78.398 124.336,53.439 136.453,44.175 112.209,24.206 149.296,7.155 183.518,37.754 
		208.478,30.627 223.458,37.038 221.31,52.018 203.488,63.429 214.183,85.536 197.067,86.957 199.203,104.789 234.153,127.612 
		219.173,152.56 281.219,180.372 338.264,191.079 	"/>
	<polygon style="fill:#F4C653;" points="478.228,153.276 448.797,178.951 438.542,211.114 409.056,211.114 411.005,208.9 
		369.645,207.48 362.507,179.667 399.594,179.667 395.309,166.119 455.923,128.317 	"/>
</g>
<path d="M483.569,148.508l-22.3-24.959c-2.32-2.596-6.172-3.148-9.127-1.305l-60.614,37.795c-2.772,1.728-4.023,5.115-3.039,8.231
	l1.337,4.234h-35.509l0.373-8.204c0.18-3.95-2.877-7.297-6.827-7.477c-3.962-0.197-7.297,2.877-7.477,6.827l-0.612,13.483
	l-4.562,6.082l-51.839-9.719l-53.905-24.164l10.825-18.042c1.979-3.3,0.997-7.574-2.225-9.679l-32.146-20.994l-0.857-7.14
	l9.716-0.81c2.351-0.196,4.454-1.538,5.623-3.586c1.169-2.049,1.255-4.544,0.227-6.666l-7.928-16.384l12.474-7.983
	c1.755-1.124,2.933-2.955,3.228-5.018l2.139-14.976c0.458-3.204-1.292-6.318-4.267-7.594l-14.976-6.418
	c-1.513-0.648-3.203-0.756-4.787-0.303l-21.164,6.047L154.064,1.822c-2.124-1.899-5.171-2.357-7.761-1.168l-37.082,17.046
	c-2.24,1.03-3.792,3.139-4.11,5.583c-0.317,2.445,0.645,4.881,2.548,6.448l17.283,14.232l-4.958,3.791
	c-1.828,1.399-2.873,3.591-2.808,5.892l0.713,24.959c0.079,2.774,1.754,5.251,4.296,6.359l19.565,8.529l-47.177,63.72l-20.974-1.798
	c-2.108-0.184-4.181,0.577-5.674,2.071l-15.688,15.688c-2.377,2.377-2.78,6.087-0.969,8.92l21.21,33.174l-39.107,2.172
	c-2.774,0.154-5.208,1.898-6.244,4.475c-1.036,2.576-0.491,5.519,1.401,7.553l19.254,20.68c1.354,1.455,3.253,2.281,5.24,2.281
	h3.801l-8.949,9.258c-2.715,2.809-2.678,7.276,0.085,10.039l17.828,17.827c2.129,2.129,5.362,2.7,8.09,1.425l21.393-9.983
	c1.65-0.77,2.944-2.139,3.621-3.829l0.036-0.091l2.584,7.383l-11.179,19.254c-0.893,1.538-1.182,3.352-0.811,5.09l13.549,63.467
	c0.098,0.46,0.242,0.911,0.43,1.344l27.02,62.571l17.759,48.305c0.257,0.698,0.62,1.352,1.078,1.938l17.828,22.819
	c1.302,1.667,3.274,2.671,5.386,2.747c0.086,0.002,0.171,0.004,0.256,0.004c2.02,0,3.952-0.855,5.312-2.36l39.934-44.213
	c1.056-1.171,1.698-2.657,1.824-4.227l6.865-85.819l52.2-37.286c0.054-0.039,0.108-0.077,0.161-0.118l49.916-37.795
	c1.788-1.354,2.837-3.465,2.837-5.708v-10.699l33.317-17.94c3.259-1.755,4.643-5.706,3.191-9.111l-17.824-41.815l2.754-28.086h3.641
	l5.752,22.43c0.789,3.078,3.511,5.268,6.688,5.377l26.246,0.904l-10.697,12.172c-1.82,2.072-2.289,5.005-1.205,7.542
	s3.529,4.223,6.285,4.338l12.992,0.542l13.057,24.871c1.342,2.555,4.084,4.057,6.963,3.805c2.875-0.252,5.319-2.206,6.196-4.957
	l25.777-80.815l27.926-24.357c1.443-1.258,2.321-3.041,2.44-4.951C485.496,151.813,484.845,149.935,483.569,148.508z M66.435,179.23
	l9.263-9.263l21.64,1.855c2.479,0.213,4.887-0.875,6.365-2.873l54.909-74.163c1.298-1.752,1.726-4.002,1.162-6.109
	c-0.563-2.107-2.056-3.843-4.056-4.714l-23.645-10.306l-0.478-16.751l9.211-7.044c1.735-1.327,2.77-3.374,2.809-5.558
	c0.039-2.184-0.921-4.267-2.607-5.656L125.58,25.94l22.44-10.315l30.731,27.468c1.832,1.637,4.373,2.221,6.738,1.546L208,38.208
	l7.592,3.254l-0.899,6.295l-15.064,9.641c-3.054,1.954-4.165,5.884-2.585,9.149l6.154,12.719l-6.722,0.561
	c-1.936,0.161-3.725,1.104-4.954,2.61c-1.228,1.507-1.791,3.448-1.56,5.377l2.139,17.827c0.252,2.102,1.422,3.984,3.193,5.142
	l29.171,19.051l-11.429,19.049c-1.053,1.756-1.305,3.877-0.691,5.83c0.615,1.953,2.034,3.55,3.901,4.386l62.039,27.811
	c0.515,0.23,1.055,0.4,1.609,0.504l57.048,10.696c0.289,0.054,0.576,0.09,0.865,0.108l-0.562,5.734H82.24L66.435,179.23z
	 M215.73,365.664c-1.718,1.227-2.808,3.15-2.976,5.255l-6.937,86.715l-32.595,36.086l-11.893-15.222l-17.44-47.438
	c-0.045-0.124-0.094-0.247-0.146-0.368l-26.818-62.102l-3.569-16.718h121.682L215.73,365.664z M352.652,256.325l-31.328,16.868
	c-2.318,1.249-3.765,3.67-3.765,6.304v11.416l-47,35.585l-15.675,11.196v-0.144H110.3l-6.199-29.036l11.45-19.717
	c1.051-1.809,1.257-3.986,0.566-5.961l-9.984-28.524c-0.987-2.818-3.617-4.728-6.601-4.792c-3.011-0.046-5.696,1.727-6.805,4.498
	l-6.079,15.197l-14.282,6.664l-9.304-9.304l15.787-16.333c1.997-2.066,2.566-5.126,1.444-7.772
	c-1.122-2.646-3.717-4.364-6.591-4.364H56.14l-6.722-7.22l36.092-2.005c2.541-0.141,4.817-1.62,5.975-3.886
	c1.092-2.131,1.027-4.652-0.126-6.729h245.11c0.063,0.191,0.122,0.382,0.2,0.568L352.652,256.325z M444.092,173.554
	c-0.987,0.86-1.718,1.974-2.115,3.22l-21.182,66.41l-7.017-13.366c-1.186-2.261-3.489-3.719-6.04-3.825l-2.142-0.089l10.789-12.277
	c1.826-2.08,2.292-5.025,1.194-7.565c-1.097-2.541-3.559-4.222-6.326-4.317l-36.004-1.241l-3.508-13.681h27.854
	c2.281,0,4.427-1.087,5.774-2.928c1.349-1.839,1.74-4.212,1.053-6.387l-2.606-8.256l50.791-31.669l13.459,15.063L444.092,173.554z"
	/>
<path d="M227.364,270.517h-10.253l7.25-7.25c2.797-2.797,2.797-7.329,0-10.125c-2.796-2.796-7.329-2.796-10.125,0l-7.249,7.249
	v-10.251c0-3.954-3.205-7.16-7.16-7.16c-3.954,0-7.16,3.205-7.16,7.16v10.251l-7.25-7.25c-2.796-2.796-7.329-2.796-10.125,0
	c-2.797,2.797-2.797,7.329,0,10.125l7.25,7.25h-10.252c-3.954,0-7.16,3.205-7.16,7.16c0,3.954,3.205,7.16,7.16,7.16h10.251
	l-7.249,7.249c-2.797,2.797-2.797,7.329,0,10.125c1.398,1.398,3.231,2.097,5.062,2.097s3.665-0.699,5.062-2.097l7.25-7.25v10.253
	c0,3.954,3.205,7.16,7.16,7.16c3.954,0,7.16-3.205,7.16-7.16v-10.251l7.249,7.249c1.398,1.398,3.231,2.097,5.062,2.097
	s3.665-0.699,5.062-2.097c2.797-2.797,2.797-7.329,0-10.125l-7.249-7.249h10.251c3.954,0,7.16-3.205,7.16-7.16
	S231.317,270.517,227.364,270.517z"/>
<g>
</g>
<g>
</g>
<g>
</g>
<g>
</g>
<g>
</g>
<g>
</g>
<g>
</g>
<g>
</g>
<g>
</g>
<g>
</g>
<g>
</g>
<g>
</g>
<g>
</g>
<g>
</g>
<g>
</g>
</svg>
